<svg width="18" height="18" viewBox="0 0 18 18" fill="none" xmlns="http://www.w3.org/2000/svg">
<path d="M11.8333 3H13.25C13.6257 3 13.986 3.15804 14.2517 3.43934C14.5174 3.72065 14.6666 4.10218 14.6666 4.5V15C14.6666 15.3978 14.5174 15.7794 14.2517 16.0607C13.986 16.342 13.6257 16.5 13.25 16.5H4.74998C4.37426 16.5 4.01392 16.342 3.74825 16.0607C3.48257 15.7794 3.33331 15.3978 3.33331 15V4.5C3.33331 4.10218 3.48257 3.72065 3.74825 3.43934C4.01392 3.15804 4.37426 3 4.74998 3H6.16665" stroke="white" stroke-width="2" stroke-linecap="round" stroke-linejoin="round"/>
<path d="M11.125 1.5H6.87499C6.48379 1.5 6.16666 1.83579 6.16666 2.25V3.75C6.16666 4.16421 6.48379 4.5 6.87499 4.5H11.125C11.5162 4.5 11.8333 4.16421 11.8333 3.75V2.25C11.8333 1.83579 11.5162 1.5 11.125 1.5Z" stroke="white" stroke-width="2" stroke-linecap="round" stroke-linejoin="round"/>
</svg>
